<?xml version="1.0" standalone="no"?>
<!DOCTYPE svg PUBLIC "-//W3C//DTD SVG 1.1//EN"
"http://www.w3.org/Graphics/SVG/1.1/DTD/svg11.dtd">

<svg width="340" height="188" view_box="0 0 340 188"
xmlns="http://www.w3.org/2000/svg"
xmlns:link="http://www.w3.org/1999/xlink">\n\n<desc>Généré par Mocodo 2.3.7 le Fri, 28 Jan 2022 06:08:38</desc>

<rect id="frame" x="0" y="0" width="340" height="188" fill="#f7f7f7" stroke="none" stroke-width="0"/>

<!-- Association Appartenir -->
<line x1="64" y1="94" x2="190" y2="94" stroke="#de77ae" stroke-width="2"/>
<text x="124" y="111.0" fill="#4d9221" font-family="Verdana" font-size="12">0,1</text>
<line x1="296" y1="94" x2="190" y2="94" stroke="#de77ae" stroke-width="2"/>
<text x="234" y="111.0" fill="#4d9221" font-family="Verdana" font-size="12">0,N</text>
<g id="association-Appartenir">
	<path d="M 215 69 a 14 14 90 0 1 14 14 V 94 h -78 V 83 a 14 14 90 0 1 14 -14" fill="#f1b6da" stroke="#f1b6da" stroke-width="0"/>
	<path d="M 229 94.0 v 11 a 14 14 90 0 1 -14 14 H 165 a 14 14 90 0 1 -14 -14 V 94.0 H 78" fill="#fde0ef" stroke="#fde0ef" stroke-width="0"/>
	<rect x="151" y="69" width="78" height="50" fill="none" rx="14" stroke="#de77ae" stroke-width="2"/>
	<line x1="151" y1="94" x2="229" y2="94" stroke="#de77ae" stroke-width="1"/>
	<text x="158" y="86.7" fill="#000000" font-family="Verdana" font-size="12">Appartenir</text>
</g>

<!-- Entity EMPLOYE -->
<g id="entity-EMPLOYE">
	<g id="frame-EMPLOYE">
		<rect x="9" y="9" width="110" height="25" fill="#b8e186" stroke="#b8e186" stroke-width="0"/>
		<rect x="9" y="34.0" width="110" height="145" fill="#e6f5d0" stroke="#e6f5d0" stroke-width="0"/>
		<rect x="9" y="9" width="110" height="170" fill="none" stroke="#7fbc41" stroke-width="2"/>
		<line x1="9" y1="34" x2="119" y2="34" stroke="#7fbc41" stroke-width="1"/>
	</g>
	<text x="35" y="26.7" fill="#000000" font-family="Verdana" font-size="12">EMPLOYE</text>
	<text x="14" y="51.7" fill="#000000" font-family="Verdana" font-size="12">IdEmployé</text>
	<line x1="14" y1="54" x2="79" y2="54" stroke="#000000" stroke-width="1"/>
	<text x="14" y="68.7" fill="#000000" font-family="Verdana" font-size="12">dateAjout</text>
	<text x="14" y="85.7" fill="#000000" font-family="Verdana" font-size="12">dateSuppr</text>
	<text x="14" y="102.8" fill="#000000" font-family="Verdana" font-size="12">mailEmployé</text>
	<text x="14" y="119.8" fill="#000000" font-family="Verdana" font-size="12">nomEmployé</text>
	<text x="14" y="136.8" fill="#000000" font-family="Verdana" font-size="12">prenomEmployé</text>
	<text x="14" y="153.8" fill="#000000" font-family="Verdana" font-size="12">mdpEmployé</text>
	<text x="14" y="170.8" fill="#000000" font-family="Verdana" font-size="12">abilitation</text>
</g>

<!-- Entity LIGUE -->
<g id="entity-LIGUE">
	<g id="frame-LIGUE">
		<rect x="261" y="60" width="70" height="25" fill="#b8e186" stroke="#b8e186" stroke-width="0"/>
		<rect x="261" y="85.0" width="70" height="43" fill="#e6f5d0" stroke="#e6f5d0" stroke-width="0"/>
		<rect x="261" y="60" width="70" height="68" fill="none" stroke="#7fbc41" stroke-width="2"/>
		<line x1="261" y1="85" x2="331" y2="85" stroke="#7fbc41" stroke-width="1"/>
	</g>
	<text x="277" y="77.7" fill="#000000" font-family="Verdana" font-size="12">LIGUE</text>
	<text x="266" y="102.8" fill="#000000" font-family="Verdana" font-size="12">idLIgue</text>
	<line x1="266" y1="105" x2="312" y2="105" stroke="#000000" stroke-width="1"/>
	<text x="266" y="119.8" fill="#000000" font-family="Verdana" font-size="12">nomLigue</text>
</g>
</svg>